# xmcd CD database file
#
# Track frame offsets:
#	150
#	9520
#	38981
#	75795
#	79562
#	142222
#
# Disc length: 2065 seconds
#
# Revision: 0
# Processed by: cddbd v1.5.2PL0 Copyright (c) Steve Scherf et al.
# Submitted via: CDex 1.70beta3
#
DISCID=3b080f06
DTITLE=Various Artist - Jazz At The Metropole
DYEAR=1955
DGENRE=Jazz
TTITLE0=Buddy Bolden Said
TTITLE1=Kiss The Baby
TTITLE2=Cotton Tail
TTITLE3=Jazz At Metropole
TTITLE4=When The Saints Go Marching In
TTITLE5=Trumpet Conversation
EXTD=YEAR: 1955
EXTT0=
EXTT1=
EXTT2=
EXTT3=
EXTT4=
EXTT5=
PLAYORDER=
